<svg xmlns="http://www.w3.org/2000/svg" xmlns:xlink="http://www.w3.org/1999/xlink" width="500" zoomAndPan="magnify" viewBox="0 0 375 374.999991" height="500" preserveAspectRatio="xMidYMid meet" version="1.0"><defs><g><g id="id1"/></g><clipPath id="id2"><path d="M 115.445312 93.457031 L 263.195312 93.457031 L 263.195312 241.207031 L 115.445312 241.207031 Z M 115.445312 93.457031 " clip-rule="nonzero"/></clipPath></defs><rect x="-37.5" width="450" fill="rgb(100%, 100%, 100%)" y="-37.499999" height="449.999989" fill-opacity="1"/><rect x="-37.5" width="450" fill="rgb(12.159729%, 23.529053%, 45.489502%)" y="-37.499999" height="449.999989" fill-opacity="1"/><rect x="-37.5" width="450" fill="rgb(100%, 100%, 100%)" y="-37.499999" height="449.999989" fill-opacity="1"/><rect x="-37.5" width="450" fill="rgb(12.159729%, 23.529053%, 45.489502%)" y="-37.499999" height="449.999989" fill-opacity="1"/><g clip-path="url(#id2)"><path fill="rgb(88.238525%, 74.899292%, 45.489502%)" d="M 187.9375 157.683594 L 189.402344 157.683594 L 203.984375 129.28125 L 203.984375 127.574219 L 174.871094 127.277344 L 174.871094 129.46875 Z M 122.398438 113.636719 L 122.398438 105.414062 L 130.621094 105.414062 L 130.621094 113.128906 L 171.964844 187.808594 L 173.933594 187.808594 L 185.179688 165.90625 L 184.800781 165.90625 L 184.800781 157.683594 L 185.585938 157.683594 L 173.402344 131.367188 L 166.652344 131.367188 L 166.652344 123.144531 L 174.871094 123.144531 L 174.871094 125.144531 L 203.984375 125.441406 L 203.984375 123.144531 L 212.207031 123.144531 L 212.207031 131.367188 L 205.308594 131.367188 L 191.796875 157.683594 L 193.023438 157.683594 L 193.023438 165.90625 L 191.742188 165.90625 L 219.78125 226.46875 L 221.121094 226.46875 L 248.019531 163.945312 L 248.019531 157.683594 L 256.242188 157.683594 L 256.242188 165.90625 L 249.496094 165.90625 L 223.441406 226.46875 L 224.621094 226.46875 L 224.621094 234.691406 L 216.402344 234.691406 L 216.402344 226.46875 L 217.433594 226.46875 L 189.394531 165.90625 L 187.574219 165.90625 L 176.328125 187.808594 L 177.128906 187.808594 L 177.128906 196.03125 L 168.910156 196.03125 L 168.910156 187.808594 L 169.527344 187.808594 L 128.460938 113.636719 Z M 118.136719 147.503906 C 116.351562 153.929688 115.449219 160.601562 115.449219 167.332031 C 115.449219 177.304688 117.398438 186.980469 121.253906 196.085938 C 124.972656 204.882812 130.300781 212.785156 137.082031 219.570312 C 143.867188 226.351562 151.769531 231.679688 160.566406 235.398438 C 169.675781 239.253906 179.347656 241.207031 189.320312 241.207031 C 195.707031 241.207031 202.046875 240.390625 208.167969 238.78125 L 207.542969 236.414062 C 201.628906 237.972656 195.496094 238.761719 189.320312 238.761719 C 149.933594 238.761719 117.890625 206.71875 117.890625 167.332031 C 117.890625 154.503906 121.328125 141.929688 127.835938 130.957031 L 125.730469 129.710938 C 122.425781 135.289062 119.871094 141.273438 118.136719 147.503906 Z M 189.320312 93.460938 C 199.292969 93.460938 208.96875 95.410156 218.074219 99.265625 C 226.871094 102.984375 234.773438 108.3125 241.558594 115.09375 C 248.339844 121.878906 253.667969 129.78125 257.390625 138.578125 C 261.242188 147.6875 263.195312 157.359375 263.195312 167.332031 C 263.195312 173.425781 262.449219 179.480469 260.984375 185.335938 C 259.5625 191.019531 257.449219 196.539062 254.714844 201.730469 C 252.023438 206.835938 248.726562 211.625 244.917969 215.980469 C 241.121094 220.3125 236.820312 224.203125 232.132812 227.542969 L 230.714844 225.550781 C 249.519531 212.152344 260.75 190.390625 260.75 167.332031 C 260.75 127.945312 228.707031 95.902344 189.320312 95.902344 C 171.820312 95.902344 154.980469 102.296875 141.910156 113.90625 L 140.285156 112.078125 C 146.902344 106.203125 154.421875 101.609375 162.636719 98.421875 C 171.140625 95.128906 180.117188 93.460938 189.320312 93.460938 " fill-opacity="1" fill-rule="nonzero"/></g><g fill="rgb(88.238525%, 74.899292%, 45.489502%)" fill-opacity="1"><g transform="translate(73.780239, 272.82212)"><g><path d="M 17.046875 0 L 14.515625 0 L 11.03125 -11.46875 L 7.5 0 L 4.9375 0 L 0.0625 -14.703125 L 2.734375 -14.703125 L 6.296875 -2.75 L 9.84375 -14.671875 L 12.28125 -14.703125 L 15.859375 -2.75 L 19.40625 -14.703125 L 21.96875 -14.703125 Z M 17.046875 0 "/></g></g></g><g fill="rgb(88.238525%, 74.899292%, 45.489502%)" fill-opacity="1"><g transform="translate(97.573369, 272.82212)"><g><path d="M 4.40625 0 L 1.9375 0 L 1.9375 -14.703125 L 4.40625 -14.703125 Z M 4.40625 0 "/></g></g></g><g fill="rgb(88.238525%, 74.899292%, 45.489502%)" fill-opacity="1"><g transform="translate(105.952442, 272.82212)"><g><path d="M 12.4375 -12.46875 L 4.40625 -12.46875 L 4.40625 -8.5 L 11.59375 -8.5 L 11.59375 -6.28125 L 4.40625 -6.28125 L 4.40625 -2.21875 L 12.6875 -2.21875 L 12.6875 0 L 1.9375 0 L 1.9375 -14.703125 L 12.4375 -14.703125 Z M 12.4375 -12.46875 "/></g></g></g><g fill="rgb(88.238525%, 74.899292%, 45.489502%)" fill-opacity="1"><g transform="translate(121.765541, 272.82212)"><g><path d="M 4.40625 -2.25 L 10.765625 -2.25 L 10.765625 0 L 1.9375 0 L 1.9375 -14.703125 L 4.40625 -14.703125 Z M 4.40625 -2.25 "/></g></g></g><g fill="rgb(88.238525%, 74.899292%, 45.489502%)" fill-opacity="1"><g transform="translate(135.016626, 272.82212)"><g><path d="M 11.96875 -12.46875 L 7.3125 -12.46875 L 7.3125 0 L 4.828125 0 L 4.828125 -12.46875 L 0.1875 -12.46875 L 0.1875 -14.703125 L 11.96875 -14.703125 Z M 11.96875 -12.46875 "/></g></g></g><g fill="rgb(88.238525%, 74.899292%, 45.489502%)" fill-opacity="1"><g transform="translate(149.212717, 272.82212)"><g><path d="M 2.953125 -12.625 C 4.453125 -14.050781 6.300781 -14.765625 8.5 -14.765625 C 10.695312 -14.765625 12.546875 -14.050781 14.046875 -12.625 C 15.546875 -11.207031 16.296875 -9.445312 16.296875 -7.34375 C 16.296875 -5.25 15.546875 -3.484375 14.046875 -2.046875 C 12.546875 -0.609375 10.695312 0.109375 8.5 0.109375 C 6.300781 0.109375 4.453125 -0.609375 2.953125 -2.046875 C 1.460938 -3.484375 0.71875 -5.25 0.71875 -7.34375 C 0.71875 -9.445312 1.460938 -11.207031 2.953125 -12.625 Z M 8.53125 -12.53125 C 7.070312 -12.53125 5.820312 -12.03125 4.78125 -11.03125 C 3.75 -10.03125 3.234375 -8.800781 3.234375 -7.34375 C 3.234375 -5.894531 3.753906 -4.660156 4.796875 -3.640625 C 5.835938 -2.628906 7.078125 -2.125 8.515625 -2.125 C 9.960938 -2.125 11.195312 -2.628906 12.21875 -3.640625 C 13.238281 -4.660156 13.75 -5.894531 13.75 -7.34375 C 13.75 -8.800781 13.238281 -10.03125 12.21875 -11.03125 C 11.195312 -12.03125 9.96875 -12.53125 8.53125 -12.53125 Z M 8.53125 -12.53125 "/></g></g></g><g fill="rgb(88.238525%, 74.899292%, 45.489502%)" fill-opacity="1"><g transform="translate(168.259833, 272.82212)"><g><path d="M 14.671875 0 L 12.25 0 L 4.40625 -10.546875 L 4.40625 0 L 1.9375 0 L 1.9375 -14.703125 L 4.375 -14.703125 L 12.25 -4.140625 L 12.25 -14.703125 L 14.671875 -14.703125 Z M 14.671875 0 "/></g></g></g><g fill="rgb(88.238525%, 74.899292%, 45.489502%)" fill-opacity="1"><g transform="translate(186.928939, 272.82212)"><g><path d="M 1.34375 -2.1875 C 1.59375 -2.445312 1.90625 -2.578125 2.28125 -2.578125 C 2.664062 -2.578125 2.984375 -2.445312 3.234375 -2.1875 C 3.484375 -1.9375 3.609375 -1.613281 3.609375 -1.21875 C 3.609375 -0.8125 3.484375 -0.472656 3.234375 -0.203125 C 2.984375 0.0546875 2.664062 0.1875 2.28125 0.1875 C 1.90625 0.1875 1.59375 0.0546875 1.34375 -0.203125 C 1.09375 -0.472656 0.96875 -0.8125 0.96875 -1.21875 C 0.96875 -1.613281 1.09375 -1.9375 1.34375 -2.1875 Z M 1.34375 -2.1875 "/></g></g></g><g fill="rgb(88.238525%, 74.899292%, 45.489502%)" fill-opacity="1"><g transform="translate(193.544001, 272.82212)"><g><path d="M 17.046875 0 L 14.515625 0 L 11.03125 -11.46875 L 7.5 0 L 4.9375 0 L 0.0625 -14.703125 L 2.734375 -14.703125 L 6.296875 -2.75 L 9.84375 -14.671875 L 12.28125 -14.703125 L 15.859375 -2.75 L 19.40625 -14.703125 L 21.96875 -14.703125 Z M 17.046875 0 "/></g></g></g><g fill="rgb(88.238525%, 74.899292%, 45.489502%)" fill-opacity="1"><g transform="translate(217.337136, 272.82212)"><g><path d="M 12.4375 -12.46875 L 4.40625 -12.46875 L 4.40625 -8.5 L 11.59375 -8.5 L 11.59375 -6.28125 L 4.40625 -6.28125 L 4.40625 -2.21875 L 12.6875 -2.21875 L 12.6875 0 L 1.9375 0 L 1.9375 -14.703125 L 12.4375 -14.703125 Z M 12.4375 -12.46875 "/></g></g></g><g fill="rgb(88.238525%, 74.899292%, 45.489502%)" fill-opacity="1"><g transform="translate(233.150238, 272.82212)"><g><path d="M 1.9375 -14.703125 L 8.3125 -14.703125 C 9.84375 -14.703125 11.046875 -14.375 11.921875 -13.71875 C 12.804688 -13.070312 13.25 -12.175781 13.25 -11.03125 C 13.25 -10.195312 13.015625 -9.488281 12.546875 -8.90625 C 12.085938 -8.332031 11.460938 -7.945312 10.671875 -7.75 C 11.648438 -7.582031 12.414062 -7.164062 12.96875 -6.5 C 13.53125 -5.84375 13.8125 -5.019531 13.8125 -4.03125 C 13.8125 -2.769531 13.335938 -1.78125 12.390625 -1.0625 C 11.441406 -0.351562 10.132812 0 8.46875 0 L 1.9375 0 Z M 4.40625 -12.5 L 4.40625 -8.609375 L 8.1875 -8.609375 C 8.96875 -8.609375 9.582031 -8.78125 10.03125 -9.125 C 10.476562 -9.476562 10.703125 -9.960938 10.703125 -10.578125 C 10.703125 -11.203125 10.484375 -11.675781 10.046875 -12 C 9.609375 -12.332031 8.988281 -12.5 8.1875 -12.5 Z M 4.40625 -6.421875 L 4.40625 -2.203125 L 8.1875 -2.203125 C 9.164062 -2.203125 9.925781 -2.382812 10.46875 -2.75 C 11.007812 -3.125 11.28125 -3.65625 11.28125 -4.34375 C 11.28125 -4.988281 11.003906 -5.492188 10.453125 -5.859375 C 9.910156 -6.234375 9.15625 -6.421875 8.1875 -6.421875 Z M 4.40625 -6.421875 "/></g></g></g><g fill="rgb(88.238525%, 74.899292%, 45.489502%)" fill-opacity="1"><g transform="translate(250.013346, 272.82212)"><g><path d="M 1.34375 -2.1875 C 1.59375 -2.445312 1.90625 -2.578125 2.28125 -2.578125 C 2.664062 -2.578125 2.984375 -2.445312 3.234375 -2.1875 C 3.484375 -1.9375 3.609375 -1.613281 3.609375 -1.21875 C 3.609375 -0.8125 3.484375 -0.472656 3.234375 -0.203125 C 2.984375 0.0546875 2.664062 0.1875 2.28125 0.1875 C 1.90625 0.1875 1.59375 0.0546875 1.34375 -0.203125 C 1.09375 -0.472656 0.96875 -0.8125 0.96875 -1.21875 C 0.96875 -1.613281 1.09375 -1.9375 1.34375 -2.1875 Z M 1.34375 -2.1875 "/></g></g></g><g fill="rgb(88.238525%, 74.899292%, 45.489502%)" fill-opacity="1"><g transform="translate(256.628408, 272.82212)"><g><path d="M 1.9375 -14.703125 L 7.953125 -14.703125 C 10.148438 -14.703125 11.96875 -14.007812 13.40625 -12.625 C 14.84375 -11.238281 15.5625 -9.476562 15.5625 -7.34375 C 15.5625 -5.21875 14.835938 -3.460938 13.390625 -2.078125 C 11.953125 -0.691406 10.117188 0 7.890625 0 L 1.9375 0 Z M 4.40625 -12.46875 L 4.40625 -2.21875 L 8.015625 -2.21875 C 9.460938 -2.21875 10.664062 -2.695312 11.625 -3.65625 C 12.582031 -4.625 13.0625 -5.847656 13.0625 -7.328125 C 13.0625 -8.816406 12.566406 -10.046875 11.578125 -11.015625 C 10.585938 -11.984375 9.367188 -12.46875 7.921875 -12.46875 Z M 4.40625 -12.46875 "/></g></g></g><g fill="rgb(88.238525%, 74.899292%, 45.489502%)" fill-opacity="1"><g transform="translate(274.940511, 272.82212)"><g><path d="M 12.4375 -12.46875 L 4.40625 -12.46875 L 4.40625 -8.5 L 11.59375 -8.5 L 11.59375 -6.28125 L 4.40625 -6.28125 L 4.40625 -2.21875 L 12.6875 -2.21875 L 12.6875 0 L 1.9375 0 L 1.9375 -14.703125 L 12.4375 -14.703125 Z M 12.4375 -12.46875 "/></g></g></g><g fill="rgb(88.238525%, 74.899292%, 45.489502%)" fill-opacity="1"><g transform="translate(290.753612, 272.82212)"><g><path d="M 8.484375 0 L 5.921875 0 L 0.0625 -14.703125 L 2.734375 -14.703125 L 7.265625 -2.75 L 11.84375 -14.703125 L 14.421875 -14.703125 Z M 8.484375 0 "/></g></g></g></svg>