<svg xmlns="http://www.w3.org/2000/svg" xmlns:xlink="http://www.w3.org/1999/xlink" width="500" zoomAndPan="magnify" viewBox="0 0 375 374.999991" height="500" preserveAspectRatio="xMidYMid meet" version="1.0"><defs><g><g id="id1"/></g><clipPath id="id2"><path d="M 113.433594 93.457031 L 261.183594 93.457031 L 261.183594 241.207031 L 113.433594 241.207031 Z M 113.433594 93.457031 " clip-rule="nonzero"/></clipPath></defs><rect x="-37.5" width="450" fill="rgb(88.238525%, 74.899292%, 45.489502%)" y="-37.499999" height="449.999989" fill-opacity="1"/><rect x="-37.5" width="450" fill="rgb(100%, 100%, 100%)" y="-37.499999" height="449.999989" fill-opacity="1"/><rect x="-37.5" width="450" fill="rgb(88.238525%, 74.899292%, 45.489502%)" y="-37.499999" height="449.999989" fill-opacity="1"/><g clip-path="url(#id2)"><path fill="rgb(12.159729%, 23.529053%, 45.489502%)" d="M 185.921875 157.683594 L 187.386719 157.683594 L 201.96875 129.28125 L 201.96875 127.574219 L 172.859375 127.277344 L 172.859375 129.46875 Z M 120.382812 113.636719 L 120.382812 105.414062 L 128.605469 105.414062 L 128.605469 113.128906 L 169.949219 187.808594 L 171.917969 187.808594 L 183.164062 165.90625 L 182.785156 165.90625 L 182.785156 157.683594 L 183.574219 157.683594 L 171.390625 131.367188 L 164.636719 131.367188 L 164.636719 123.144531 L 172.859375 123.144531 L 172.859375 125.144531 L 201.96875 125.441406 L 201.96875 123.144531 L 210.191406 123.144531 L 210.191406 131.367188 L 203.296875 131.367188 L 189.78125 157.683594 L 191.007812 157.683594 L 191.007812 165.90625 L 189.730469 165.90625 L 217.769531 226.46875 L 219.105469 226.46875 L 246.007812 163.945312 L 246.007812 157.683594 L 254.230469 157.683594 L 254.230469 165.90625 L 247.484375 165.90625 L 221.425781 226.46875 L 222.609375 226.46875 L 222.609375 234.691406 L 214.386719 234.691406 L 214.386719 226.46875 L 215.421875 226.46875 L 187.378906 165.90625 L 185.5625 165.90625 L 174.316406 187.808594 L 175.117188 187.808594 L 175.117188 196.03125 L 166.894531 196.03125 L 166.894531 187.808594 L 167.511719 187.808594 L 126.449219 113.636719 Z M 116.125 147.503906 C 114.339844 153.929688 113.433594 160.601562 113.433594 167.332031 C 113.433594 177.304688 115.386719 186.980469 119.238281 196.085938 C 122.957031 204.882812 128.285156 212.785156 135.070312 219.570312 C 141.851562 226.351562 149.753906 231.679688 158.550781 235.398438 C 167.660156 239.253906 177.335938 241.207031 187.308594 241.207031 C 193.695312 241.207031 200.035156 240.390625 206.152344 238.78125 L 205.53125 236.414062 C 199.613281 237.972656 193.484375 238.761719 187.308594 238.761719 C 147.921875 238.761719 115.878906 206.71875 115.878906 167.332031 C 115.878906 154.503906 119.316406 141.929688 125.820312 130.957031 L 123.71875 129.710938 C 120.410156 135.289062 117.855469 141.273438 116.125 147.503906 Z M 187.308594 93.460938 C 197.277344 93.460938 206.953125 95.410156 216.0625 99.265625 C 224.859375 102.984375 232.757812 108.3125 239.542969 115.09375 C 246.328125 121.878906 251.652344 129.78125 255.375 138.578125 C 259.226562 147.6875 261.179688 157.359375 261.179688 167.332031 C 261.179688 173.425781 260.4375 179.480469 258.972656 185.335938 C 257.546875 191.019531 255.4375 196.539062 252.699219 201.730469 C 250.007812 206.835938 246.714844 211.625 242.902344 215.980469 C 239.109375 220.3125 234.808594 224.203125 230.121094 227.542969 L 228.699219 225.550781 C 247.507812 212.152344 258.734375 190.390625 258.734375 167.332031 C 258.734375 127.945312 226.691406 95.902344 187.308594 95.902344 C 169.804688 95.902344 152.96875 102.296875 139.894531 113.90625 L 138.269531 112.078125 C 144.890625 106.203125 152.410156 101.609375 160.625 98.421875 C 169.128906 95.128906 178.105469 93.460938 187.308594 93.460938 " fill-opacity="1" fill-rule="nonzero"/></g><g fill="rgb(12.159729%, 23.529053%, 45.489502%)" fill-opacity="1"><g transform="translate(66.27197, 273.472132)"><g><path d="M 17.859375 0 L 15.203125 0 L 11.546875 -12.015625 L 7.859375 0 L 5.171875 0 L 0.0625 -15.40625 L 2.859375 -15.40625 L 6.59375 -2.875 L 10.3125 -15.375 L 12.875 -15.40625 L 16.609375 -2.875 L 20.328125 -15.40625 L 23.015625 -15.40625 Z M 17.859375 0 "/></g></g></g><g fill="rgb(12.159729%, 23.529053%, 45.489502%)" fill-opacity="1"><g transform="translate(91.193956, 273.472132)"><g><path d="M 4.625 0 L 2.03125 0 L 2.03125 -15.40625 L 4.625 -15.40625 Z M 4.625 0 "/></g></g></g><g fill="rgb(12.159729%, 23.529053%, 45.489502%)" fill-opacity="1"><g transform="translate(99.970813, 273.472132)"><g><path d="M 13.03125 -13.0625 L 4.625 -13.0625 L 4.625 -8.90625 L 12.140625 -8.90625 L 12.140625 -6.578125 L 4.625 -6.578125 L 4.625 -2.328125 L 13.28125 -2.328125 L 13.28125 0 L 2.03125 0 L 2.03125 -15.40625 L 13.03125 -15.40625 Z M 13.03125 -13.0625 "/></g></g></g><g fill="rgb(12.159729%, 23.529053%, 45.489502%)" fill-opacity="1"><g transform="translate(116.534287, 273.472132)"><g><path d="M 4.625 -2.359375 L 11.28125 -2.359375 L 11.28125 0 L 2.03125 0 L 2.03125 -15.40625 L 4.625 -15.40625 Z M 4.625 -2.359375 "/></g></g></g><g fill="rgb(12.159729%, 23.529053%, 45.489502%)" fill-opacity="1"><g transform="translate(130.414235, 273.472132)"><g><path d="M 12.546875 -13.0625 L 7.65625 -13.0625 L 7.65625 0 L 5.0625 0 L 5.0625 -13.0625 L 0.203125 -13.0625 L 0.203125 -15.40625 L 12.546875 -15.40625 Z M 12.546875 -13.0625 "/></g></g></g><g fill="rgb(12.159729%, 23.529053%, 45.489502%)" fill-opacity="1"><g transform="translate(145.284006, 273.472132)"><g><path d="M 3.09375 -13.234375 C 4.664062 -14.722656 6.601562 -15.46875 8.90625 -15.46875 C 11.207031 -15.46875 13.144531 -14.722656 14.71875 -13.234375 C 16.289062 -11.742188 17.078125 -9.898438 17.078125 -7.703125 C 17.078125 -5.503906 16.289062 -3.648438 14.71875 -2.140625 C 13.144531 -0.640625 11.207031 0.109375 8.90625 0.109375 C 6.601562 0.109375 4.664062 -0.640625 3.09375 -2.140625 C 1.53125 -3.648438 0.75 -5.503906 0.75 -7.703125 C 0.75 -9.898438 1.53125 -11.742188 3.09375 -13.234375 Z M 8.9375 -13.140625 C 7.40625 -13.140625 6.097656 -12.613281 5.015625 -11.5625 C 3.929688 -10.507812 3.390625 -9.21875 3.390625 -7.6875 C 3.390625 -6.164062 3.9375 -4.875 5.03125 -3.8125 C 6.125 -2.75 7.425781 -2.21875 8.9375 -2.21875 C 10.445312 -2.21875 11.734375 -2.75 12.796875 -3.8125 C 13.867188 -4.875 14.40625 -6.164062 14.40625 -7.6875 C 14.40625 -9.21875 13.867188 -10.507812 12.796875 -11.5625 C 11.734375 -12.613281 10.445312 -13.140625 8.9375 -13.140625 Z M 8.9375 -13.140625 "/></g></g></g><g fill="rgb(12.159729%, 23.529053%, 45.489502%)" fill-opacity="1"><g transform="translate(165.234874, 273.472132)"><g><path d="M 15.375 0 L 12.828125 0 L 4.625 -11.046875 L 4.625 0 L 2.03125 0 L 2.03125 -15.40625 L 4.578125 -15.40625 L 12.828125 -4.328125 L 12.828125 -15.40625 L 15.375 -15.40625 Z M 15.375 0 "/></g></g></g><g fill="rgb(12.159729%, 23.529053%, 45.489502%)" fill-opacity="1"><g transform="translate(184.789804, 273.472132)"><g><path d="M 1.40625 -2.296875 C 1.664062 -2.566406 1.992188 -2.703125 2.390625 -2.703125 C 2.785156 -2.703125 3.113281 -2.566406 3.375 -2.296875 C 3.644531 -2.023438 3.78125 -1.6875 3.78125 -1.28125 C 3.78125 -0.851562 3.644531 -0.5 3.375 -0.21875 C 3.113281 0.0625 2.785156 0.203125 2.390625 0.203125 C 1.992188 0.203125 1.664062 0.0625 1.40625 -0.21875 C 1.144531 -0.5 1.015625 -0.851562 1.015625 -1.28125 C 1.015625 -1.6875 1.144531 -2.023438 1.40625 -2.296875 Z M 1.40625 -2.296875 "/></g></g></g><g fill="rgb(12.159729%, 23.529053%, 45.489502%)" fill-opacity="1"><g transform="translate(191.718984, 273.472132)"><g><path d="M 17.859375 0 L 15.203125 0 L 11.546875 -12.015625 L 7.859375 0 L 5.171875 0 L 0.0625 -15.40625 L 2.859375 -15.40625 L 6.59375 -2.875 L 10.3125 -15.375 L 12.875 -15.40625 L 16.609375 -2.875 L 20.328125 -15.40625 L 23.015625 -15.40625 Z M 17.859375 0 "/></g></g></g><g fill="rgb(12.159729%, 23.529053%, 45.489502%)" fill-opacity="1"><g transform="translate(216.640964, 273.472132)"><g><path d="M 13.03125 -13.0625 L 4.625 -13.0625 L 4.625 -8.90625 L 12.140625 -8.90625 L 12.140625 -6.578125 L 4.625 -6.578125 L 4.625 -2.328125 L 13.28125 -2.328125 L 13.28125 0 L 2.03125 0 L 2.03125 -15.40625 L 13.03125 -15.40625 Z M 13.03125 -13.0625 "/></g></g></g><g fill="rgb(12.159729%, 23.529053%, 45.489502%)" fill-opacity="1"><g transform="translate(233.204431, 273.472132)"><g><path d="M 2.03125 -15.40625 L 8.71875 -15.40625 C 10.3125 -15.40625 11.566406 -15.0625 12.484375 -14.375 C 13.410156 -13.695312 13.875 -12.753906 13.875 -11.546875 C 13.875 -10.679688 13.632812 -9.941406 13.15625 -9.328125 C 12.675781 -8.722656 12.015625 -8.320312 11.171875 -8.125 C 12.203125 -7.945312 13.007812 -7.507812 13.59375 -6.8125 C 14.175781 -6.125 14.46875 -5.257812 14.46875 -4.21875 C 14.46875 -2.90625 13.96875 -1.875 12.96875 -1.125 C 11.976562 -0.375 10.609375 0 8.859375 0 L 2.03125 0 Z M 4.625 -13.09375 L 4.625 -9.015625 L 8.578125 -9.015625 C 9.398438 -9.015625 10.046875 -9.195312 10.515625 -9.5625 C 10.984375 -9.9375 11.21875 -10.445312 11.21875 -11.09375 C 11.21875 -11.738281 10.984375 -12.234375 10.515625 -12.578125 C 10.054688 -12.921875 9.410156 -13.09375 8.578125 -13.09375 Z M 4.625 -6.734375 L 4.625 -2.3125 L 8.578125 -2.3125 C 9.609375 -2.3125 10.40625 -2.503906 10.96875 -2.890625 C 11.53125 -3.273438 11.8125 -3.828125 11.8125 -4.546875 C 11.8125 -5.222656 11.523438 -5.753906 10.953125 -6.140625 C 10.378906 -6.535156 9.585938 -6.734375 8.578125 -6.734375 Z M 4.625 -6.734375 "/></g></g></g><g fill="rgb(12.159729%, 23.529053%, 45.489502%)" fill-opacity="1"><g transform="translate(250.867699, 273.472132)"><g><path d="M 1.40625 -2.296875 C 1.664062 -2.566406 1.992188 -2.703125 2.390625 -2.703125 C 2.785156 -2.703125 3.113281 -2.566406 3.375 -2.296875 C 3.644531 -2.023438 3.78125 -1.6875 3.78125 -1.28125 C 3.78125 -0.851562 3.644531 -0.5 3.375 -0.21875 C 3.113281 0.0625 2.785156 0.203125 2.390625 0.203125 C 1.992188 0.203125 1.664062 0.0625 1.40625 -0.21875 C 1.144531 -0.5 1.015625 -0.851562 1.015625 -1.28125 C 1.015625 -1.6875 1.144531 -2.023438 1.40625 -2.296875 Z M 1.40625 -2.296875 "/></g></g></g><g fill="rgb(12.159729%, 23.529053%, 45.489502%)" fill-opacity="1"><g transform="translate(257.796879, 273.472132)"><g><path d="M 2.03125 -15.40625 L 8.34375 -15.40625 C 10.644531 -15.40625 12.546875 -14.675781 14.046875 -13.21875 C 15.546875 -11.769531 16.296875 -9.929688 16.296875 -7.703125 C 16.296875 -5.472656 15.539062 -3.628906 14.03125 -2.171875 C 12.519531 -0.722656 10.597656 0 8.265625 0 L 2.03125 0 Z M 4.625 -13.0625 L 4.625 -2.328125 L 8.40625 -2.328125 C 9.914062 -2.328125 11.171875 -2.828125 12.171875 -3.828125 C 13.179688 -4.835938 13.6875 -6.117188 13.6875 -7.671875 C 13.6875 -9.234375 13.164062 -10.519531 12.125 -11.53125 C 11.09375 -12.550781 9.816406 -13.0625 8.296875 -13.0625 Z M 4.625 -13.0625 "/></g></g></g><g fill="rgb(12.159729%, 23.529053%, 45.489502%)" fill-opacity="1"><g transform="translate(276.977873, 273.472132)"><g><path d="M 13.03125 -13.0625 L 4.625 -13.0625 L 4.625 -8.90625 L 12.140625 -8.90625 L 12.140625 -6.578125 L 4.625 -6.578125 L 4.625 -2.328125 L 13.28125 -2.328125 L 13.28125 0 L 2.03125 0 L 2.03125 -15.40625 L 13.03125 -15.40625 Z M 13.03125 -13.0625 "/></g></g></g><g fill="rgb(12.159729%, 23.529053%, 45.489502%)" fill-opacity="1"><g transform="translate(293.541341, 273.472132)"><g><path d="M 8.890625 0 L 6.203125 0 L 0.0625 -15.40625 L 2.859375 -15.40625 L 7.609375 -2.875 L 12.40625 -15.40625 L 15.109375 -15.40625 Z M 8.890625 0 "/></g></g></g></svg>